# xmcd
#
# Track frame offsets:
# 150
# 17418
# 33831
# 55284
# 68730
# 88300
# 106662
# 118963
# 135392
# 152239
# 168075
#
# Disc length: 2464 seconds
#
#
# Revision: 0
# Processed by: cddbd v1.5.2PL0 Copyright (c) Steve Scherf et al.
# Submitted via: FreeRIP 2.945 
#
DISCID=85099e0b
DTITLE=Peter Searcy - Couch Songs
DYEAR=2004
DGENRE=Folk/Rock
TTITLE0=Rewind
TTITLE1=Gavity
TTITLE2=Deny You
TTITLE3=Invent
TTITLE4=Lost
TTITLE5=Spinning
TTITLE6=Loneliest Girl
TTITLE7=Losing Light Fast
TTITLE8=Sparks
TTITLE9=Graced
TTITLE10=Nothing
EXTD=www.petersearcy.net
EXTT0=
EXTT1=
EXTT2=
EXTT3=
EXTT4=
EXTT5=
EXTT6=
EXTT7=
EXTT8=
EXTT9=
EXTT10=
PLAYORDER=
